PathFileType	4	(X/Y/Z)	C:\Users\chris\Documents\GitHub\baseballds\vids\pitch2_Sports2D\pitch2_Sports2D_px_person00.trc
DataRate	CameraRate	NumFrames	NumMarkers	Units	OrigDataRate	OrigDataStartFrame	OrigNumFrames
30	30	9	22	m	30	151	243
Frame#	Time	Hip			RHip			RKnee			RAnkle			RBigToe			RSmallToe			RHeel			LHip			LKnee			LAnkle			LBigToe			LSmallToe			LHeel			Neck			Head			Nose			RShoulder			RElbow			RWrist			LShoulder			LElbow			LWrist		
		X1	Y1	Z1	X2	Y2	Z2	X3	Y3	Z3	X4	Y4	Z4	X5	Y5	Z5	X6	Y6	Z6	X7	Y7	Z7	X8	Y8	Z8	X9	Y9	Z9	X10	Y10	Z10	X11	Y11	Z11	X12	Y12	Z12	X13	Y13	Z13	X14	Y14	Z14	X15	Y15	Z15	X16	Y16	Z16	X17	Y17	Z17	X18	Y18	Z18	X19	Y19	Z19	X20	Y20	Z20	X21	Y21	Z21	X22	Y22	Z22
151	5.033333333333333	399.87868385566185	991.8798024939935	0.0	400.4591693569439	1016.6307542743971	0.0	443.9528172358658	1293.3253420982307	0.0	401.23759334701083	1566.5575447878539	0.0	537.4962176290916	1604.2006828290496	0.0	511.571348984952	1620.9309101720771	0.0	372.3311820432823	1607.7643147866834	0.0	421.07496688032495	1013.2497544578646	0.0	453.5281883772297	1277.60157365154	0.0	428.10129222429913	1495.81781531107	0.0	542.6752308197165	1557.2933355030518	0.0	528.1147143585524	1532.621733738421	0.0	401.61312905095576	1534.4772095071348	0.0	441.3342727649252	586.0566518999964	0.0	479.2018201805605	420.3043917686489	0.0	533.9666879975223	529.7838411584867	0.0	415.955385323483	660.7372796806487	0.0	430.3754200694427	871.4623011516513	0.0	582.5166141439222	831.2664945144555	0.0	423.77737499818727	652.2889014931093	0.0	440.02895612857895	842.6386611327564	0.0	566.7877144142847	839.5001984673994	0.0
152	5.066666666666666	399.626997517376	990.4769730340377	0.0	401.66757202399197	1015.5644933841331	0.0	445.3200361852731	1293.0702763470701	0.0	400.5557270966997	1567.5630566043114	0.0	539.2332712679461	1604.0701853420117	0.0	511.5778849939535	1621.197902895458	0.0	373.0826437904224	1608.839995908231	0.0	419.9087793892736	1012.4511428781046	0.0	453.2041884885436	1278.2373776849806	0.0	428.3801162642935	1495.1846515887012	0.0	541.2687396236897	1557.2939758092593	0.0	527.6616368915697	1533.0006788515334	0.0	402.6611848828364	1532.6899150292325	0.0	440.9267090496418	586.323283295766	0.0	479.96301207469327	421.86734363285393	0.0	533.4887863564668	532.8415023015857	0.0	415.7671149734913	660.5190003658295	0.0	431.59788526607855	872.9338424353141	0.0	585.1861847903239	828.4753469735623	0.0	422.37537577025256	652.6248583605264	0.0	439.204976857431	843.9368030251227	0.0	567.357526399975	836.5534506343228	0.0
153	5.1	400.21058625513876	990.8879343345769	0.0	402.2595653064955	1017.2907194709902	0.0	445.317526282288	1292.8939340163806	0.0	399.25473652533543	1566.5387239941585	0.0	536.7592051201152	1606.3979700038308	0.0	508.1049956741129	1621.914635875823	0.0	371.5525735490978	1609.2978332883088	0.0	420.612029868771	1013.7837009516091	0.0	454.5161560634616	1278.151449202197	0.0	430.3508501868705	1493.1203938810747	0.0	540.5148674226645	1555.754662800107	0.0	527.8078161424862	1531.3171956031167	0.0	406.49871590757544	1530.4055697076867	0.0	440.3950873596031	586.1507954659706	0.0	481.8943928969809	423.36389195647564	0.0	534.2035295436154	534.6349044643479	0.0	415.7728294330427	660.7158475278961	0.0	433.02427916496526	872.162107783758	0.0	589.5385873372621	825.1108370858093	0.0	421.232569138786	652.2816324730118	0.0	439.27600936395316	843.7182739589856	0.0	565.6163998972509	833.516400299391	0.0
154	5.133333333333333	401.0706126234916	992.9153677695042	0.0	401.7662055994716	1019.9182693397903	0.0	444.51814155272376	1293.7215026709068	0.0	398.45847510519104	1566.2045201242793	0.0	531.660172034672	1610.0227701956399	0.0	503.8996274153968	1623.7577595656396	0.0	369.6198516351865	1609.8141741262148	0.0	422.1203683247661	1014.7115563059469	0.0	455.5522567728693	1278.6175681735542	0.0	431.2051505949913	1494.2929571531063	0.0	541.2171858852612	1553.3907781563698	0.0	528.5266067606789	1529.4850258049041	0.0	407.5673591393271	1531.359860894629	0.0	439.9038182316235	585.9484092617517	0.0	482.2837709096364	423.9256373479214	0.0	534.9788455198552	533.7587493666547	0.0	414.65313773964425	661.2061809030943	0.0	435.10058798583464	870.225986756572	0.0	592.5927049793537	823.0273810868625	0.0	422.9922571841562	652.1420482223249	0.0	441.62624266830375	842.2694855087282	0.0	562.1220272854118	832.7104276314782	0.0
155	5.166666666666667	401.2781514141489	994.4404126942754	0.0	400.17354197641527	1019.9539402860142	0.0	444.1204277337533	1294.7963145380975	0.0	398.66916447176203	1566.6015122192598	0.0	527.3000329638567	1613.2266363975689	0.0	500.24982304586905	1626.6485845507493	0.0	368.9526239461343	1608.878425415677	0.0	423.4682025805688	1012.5856612722681	0.0	455.5845232047634	1279.343788442537	0.0	430.05258641357557	1498.081417471843	0.0	542.2579417370541	1550.7865976493927	0.0	529.387040869666	1528.570421986188	0.0	404.64098530583277	1534.4282511218507	0.0	439.2489626388689	585.6412042481395	0.0	480.3581560958995	423.064837751768	0.0	534.672419498222	531.1540683289772	0.0	412.5809239283534	661.3807237380718	0.0	438.09365760033415	869.1296588650259	0.0	593.3585237031475	822.8127450402344	0.0	426.8918209975149	652.1342345795346	0.0	445.665228109837	840.2448699840728	0.0	560.1846743131499	832.89687936408	0.0
156	5.2	400.5508439751336	994.6519942017601	0.0	398.8282384861519	1018.0458525594483	0.0	444.04272242940647	1294.8532335577963	0.0	399.2813372339981	1565.8910940757476	0.0	525.5682984955426	1614.7027525791436	0.0	497.83320073058536	1628.3111964789528	0.0	368.915941803756	1605.7839508041975	0.0	423.7096885931632	1010.3391308588898	0.0	455.78641473053256	1279.0837983251874	0.0	429.19881816875187	1499.9925606186189	0.0	542.2309679927089	1549.4378912341112	0.0	529.4248171633086	1528.1070678473106	0.0	402.7656873918627	1535.8880089721565	0.0	439.2027322281432	585.5636808742348	0.0	479.39306255529283	422.0285345169917	0.0	534.2358380643844	529.7040581019345	0.0	412.52897800705875	661.2660896352761	0.0	441.66308574444804	869.8310042490007	0.0	592.628027827567	823.4710151831047	0.0	428.01802970208144	651.941272223126	0.0	448.3146617051826	839.3661594037922	0.0	561.9473065997797	831.3704157693196	0.0
157	5.233333333333333	399.6436207369804	994.2837218705421	0.0	399.3580196277459	1017.0261257945355	0.0	443.9089983120326	1293.9869678342602	0.0	399.5281776440751	1565.0644564132697	0.0	526.6447576332652	1613.678020870158	0.0	498.5771454342231	1627.0071868560779	0.0	368.5870926144113	1603.7843293657443	0.0	421.94045499131425	1011.2170154335406	0.0	456.8789592169029	1278.3436545184957	0.0	429.522830784526	1500.5126936127672	0.0	541.7381457228053	1550.9724088847138	0.0	528.3693394009699	1528.4754242453414	0.0	403.87998659148286	1536.4250143008271	0.0	440.4617936383041	585.8408348027505	0.0	481.3752808759929	422.15675995175184	0.0	534.8217424117612	530.6775817511643	0.0	415.75471809681807	661.4269813562541	0.0	445.65098078704926	872.0876527724583	0.0	591.837685965579	823.0909098296638	0.0	424.0976579871683	651.6264458373981	0.0	447.45976560593823	841.04754479968	0.0	565.5208959453932	828.4371527730232	0.0
158	5.266666666666667	399.1367254298772	994.214805137944	0.0	401.4207659907388	1016.8518463243321	0.0	444.44639140915444	1293.0057605165998	0.0	399.23662601657594	1565.8427961965624	0.0	527.8788539087495	1611.9081838841244	0.0	500.6219339476283	1624.9731147574232	0.0	368.3707960411791	1604.687013952071	0.0	418.72068425782993	1012.3141054794556	0.0	457.96943982375547	1277.8142429862548	0.0	429.5105459999436	1502.385616985482	0.0	541.6891722884491	1553.1597679158322	0.0	527.5475584848291	1529.409425605914	0.0	404.3534344564764	1538.2579783704132	0.0	442.0828293714263	585.6349942197228	0.0	483.5300452005057	423.06487215459697	0.0	535.5330724821835	531.7366979096078	0.0	419.2612079679764	662.1698712622648	0.0	449.47745824892735	874.2310470206469	0.0	592.2683306282386	821.2041910069413	0.0	419.64673350891405	650.9366869716255	0.0	445.07845068748566	843.1042907466979	0.0	566.8195252771642	827.3397156176883	0.0
159	5.3	398.9211561156317	994.8103845017384	0.0	403.6590807068155	1016.0464868315881	0.0	446.64763955549506	1291.8257167908341	0.0	398.7875052596777	1566.5157672085784	0.0	526.9732444304077	1611.9476489114359	0.0	500.0788201773916	1625.0263433286657	0.0	368.9298549133054	1604.9958553373476	0.0	415.839260101724	1010.1698980125336	0.0	457.32173505642044	1276.7985961669024	0.0	428.60415896676716	1504.0217261985931	0.0	541.4906322184622	1553.6479479278728	0.0	527.7370647302625	1530.578609069256	0.0	402.083117323673	1539.8152797589396	0.0	442.8204055365194	584.8834759026909	0.0	483.0961545770041	423.57816918091817	0.0	535.0837805048914	531.1595020717737	0.0	420.6672087248786	663.575434165268	0.0	452.06133906492454	874.9108037966917	0.0	593.7502226855797	819.2821513943383	0.0	418.92043929749684	649.6376814271509	0.0	444.10660897295764	842.3625914718466	0.0	564.7641114696271	829.1032522073185	0.0
